<svg viewBox="0 0 24.167 24.167" fill="none" xmlns="http://www.w3.org/2000/svg">
<path id="Icon" d="M21.292 0C22.8795 0.000352099 24.167 1.2874 24.167 2.875V21.292C24.1666 22.8793 22.8793 24.1666 21.292 24.167H2.875C1.2874 24.167 0.000352099 22.8795 0 21.292V2.875C0 1.28718 1.28718 0 2.875 0H21.292ZM2.875 1.5C2.11561 1.5 1.5 2.11561 1.5 2.875V21.292C1.50035 22.0511 2.11583 22.667 2.875 22.667H21.292C22.0509 22.6666 22.6666 22.0509 22.667 21.292V2.875C22.667 2.11583 22.0511 1.50035 21.292 1.5H2.875ZM12.083 4.25C12.4972 4.25 12.833 4.58579 12.833 5V19.167C12.8327 19.5809 12.497 19.917 12.083 19.917C11.669 19.917 11.3334 19.5809 11.333 19.167V5C11.333 4.58579 11.6688 4.25 12.083 4.25ZM17.75 9.5625C18.1641 9.56268 18.5 9.89839 18.5 10.3125V19.167C18.4996 19.5808 18.1638 19.9168 17.75 19.917C17.336 19.917 17.0004 19.5809 17 19.167V10.3125C17 9.89829 17.3358 9.5625 17.75 9.5625ZM6.41602 12.3955C6.83023 12.3955 7.16602 12.7313 7.16602 13.1455V19.166C7.16602 19.5802 6.83023 19.916 6.41602 19.916C6.00195 19.9158 5.66602 19.5801 5.66602 19.166V13.1455C5.66602 12.7314 6.00195 12.3957 6.41602 12.3955Z" fill="#7D4CCF"/>
</svg>
