<svg viewBox="0 0 24.5 26.1667" fill="none" xmlns="http://www.w3.org/2000/svg">
<path id="Icon" d="M17.5833 17.0872V19.7333H19.7487M6.08333 0.75V3.08333M6.08333 3.08333H2.75C1.64543 3.08333 0.75 3.97876 0.75 5.08333V9.08333M6.08333 3.08333H16.75M16.75 0.75V3.08333M16.75 3.08333H20.0833C21.1879 3.08333 22.0833 3.97876 22.0833 5.08333V9.08333H0.75M7.41667 24.4167H2.75C1.64543 24.4167 0.75 23.5212 0.75 22.4167V9.08333M23.75 19.25C23.75 22.6558 20.9891 25.4167 17.5833 25.4167C14.1776 25.4167 11.4167 22.6558 11.4167 19.25C11.4167 15.8442 14.1776 13.0833 17.5833 13.0833C20.9891 13.0833 23.75 15.8442 23.75 19.25Z" stroke="white" stroke-width="1.5" stroke-linecap="round" stroke-linejoin="round"/>
</svg>
