<svg viewBox="0 0 24.167 26.6455" fill="none" xmlns="http://www.w3.org/2000/svg">
<path id="Icon" d="M17.75 0C18.164 0.000175963 18.4998 0.336045 18.5 0.75V2.47949H21.292C22.8794 2.47984 24.1668 3.76704 24.167 5.35449V23.7705C24.167 25.3581 22.8795 26.6452 21.292 26.6455H2.875C1.28718 26.6455 0 25.3583 0 23.7705V5.35449C0.000175951 3.76682 1.28729 2.47949 2.875 2.47949H5.66699V0.75C5.66717 0.335936 6.00289 0 6.41699 0C6.8308 0.00035143 7.16682 0.336153 7.16699 0.75V2.47949H17V0.75C17.0002 0.335936 17.3359 0 17.75 0ZM1.5 23.7705C1.5 24.5299 2.11561 25.1455 2.875 25.1455H21.292C22.0511 25.1452 22.667 24.5297 22.667 23.7705V10.3545H1.5V23.7705ZM2.875 3.97949C2.11572 3.97949 1.50018 4.59525 1.5 5.35449V8.85449H22.667V5.35449C22.6668 4.59547 22.051 3.97984 21.292 3.97949H2.875Z" fill="#7D4CCF"/>
</svg>
