<svg viewBox="0 0 27.709 27.708" fill="none" xmlns="http://www.w3.org/2000/svg">
<path id="Icon" d="M11.6045 1.70508C5.85604 2.76309 1.50015 7.80016 1.5 13.8545C1.50018 20.6773 7.03173 26.2078 13.8545 26.208C19.9088 26.2079 24.945 21.8528 26.0029 16.1045H27.5254C26.4504 22.6855 20.7395 27.7078 13.8545 27.708C6.2033 27.7078 0.000175522 21.5057 0 13.8545C0.000151964 6.96945 5.02337 1.25769 11.6045 0.182617V1.70508ZM13.8545 0C14.6206 0 15.3722 0.0630067 16.1045 0.182617C16.1178 0.184798 16.1312 0.187234 16.1445 0.189453C16.4849 0.24607 16.8209 0.315534 17.1523 0.396484C17.1718 0.401243 17.1915 0.405315 17.2109 0.410156C17.3752 0.451045 17.5383 0.495295 17.7002 0.541992C17.7129 0.545648 17.7256 0.549044 17.7383 0.552734C23.4992 2.23199 27.7088 7.55149 27.709 13.8545C27.7088 14.2684 27.3729 14.6043 26.959 14.6045H13.8545C13.4404 14.6045 13.1047 14.2686 13.1045 13.8545V0.75C13.1047 0.335936 13.4404 0 13.8545 0ZM14.6045 13.1045H26.1855C26.0596 11.0006 25.4054 9.03973 24.3564 7.34961C24.2865 7.23689 24.2141 7.12589 24.1406 7.01562C22.7012 4.8546 20.6006 3.17386 18.126 2.26172C18.0079 2.21819 17.8893 2.17573 17.7695 2.13574C16.7655 1.80046 15.7047 1.58835 14.6045 1.52246V13.1045Z" fill="#7D4CCF"/>
</svg>
