<svg viewBox="0 0 26.166 26.166" fill="none" xmlns="http://www.w3.org/2000/svg">
<path id="Icon" d="M10.833 1.71875C5.51303 2.76609 1.50046 7.45507 1.5 13.082C1.5 19.4792 6.68586 24.6658 13.083 24.666C18.71 24.6659 23.3985 20.6529 24.4463 15.333H25.9727C24.9057 21.4862 19.5411 26.1659 13.083 26.166C5.85743 26.1658 0 20.3076 0 13.082C0.000465407 6.62396 4.67974 1.25893 10.833 0.192383V1.71875ZM13.083 0C13.8502 0 14.602 0.065681 15.333 0.192383C15.3415 0.193853 15.3499 0.19578 15.3584 0.197266C15.5008 0.222244 15.6424 0.249751 15.7832 0.279297C15.8266 0.288405 15.8698 0.29808 15.9131 0.307617C16.2039 0.371758 16.4912 0.445178 16.7744 0.52832C16.8073 0.537986 16.8402 0.5477 16.873 0.557617C17.0094 0.598822 17.1449 0.642004 17.2793 0.6875L17.3086 0.697266C17.3272 0.703615 17.3457 0.710366 17.3643 0.716797C17.4823 0.757653 17.5994 0.800613 17.7158 0.844727C17.7507 0.857946 17.7856 0.871257 17.8203 0.884766C17.9584 0.938435 18.0957 0.99358 18.2314 1.05176C18.2487 1.05917 18.266 1.06674 18.2832 1.07422C18.4086 1.1286 18.5329 1.18501 18.6562 1.24316C18.6788 1.25379 18.7012 1.26464 18.7236 1.27539C18.8573 1.33938 18.9899 1.40528 19.1211 1.47363C19.1454 1.48629 19.1692 1.49989 19.1934 1.5127C19.6084 1.73232 20.0104 1.97291 20.3975 2.23438L20.4297 2.25586C20.4399 2.26282 20.4498 2.27036 20.46 2.27734C20.718 2.45384 20.9696 2.63896 21.2139 2.83301C21.2257 2.84237 21.2373 2.85193 21.249 2.86133C21.3341 2.92938 21.4177 2.99922 21.501 3.06934C21.5865 3.14127 21.6703 3.215 21.7539 3.28906C21.8154 3.3435 21.8771 3.39755 21.9375 3.45312C22.2063 3.70042 22.4646 3.95875 22.7119 4.22754C22.7681 4.28862 22.8229 4.35094 22.8779 4.41309C22.9485 4.49273 23.0183 4.57294 23.0869 4.6543C23.2652 4.86572 23.4377 5.08213 23.6025 5.30469C23.6186 5.3264 23.6344 5.3483 23.6504 5.37012C23.831 5.6172 24.0027 5.87106 24.166 6.13086C24.1743 6.14401 24.1832 6.15674 24.1914 6.16992C25.4423 8.17583 26.166 10.5449 26.166 13.083C26.1658 13.4971 25.8301 13.833 25.416 13.833H13.083C12.6689 13.833 12.3332 13.4971 12.333 13.083V0.75C12.333 0.335786 12.6688 0 13.083 0ZM13.833 12.333H24.6396C24.2688 6.5335 19.6326 1.89709 13.833 1.52637V12.333Z" fill="white"/>
</svg>
