<svg viewBox="0 0 23.083 23.083" fill="none" xmlns="http://www.w3.org/2000/svg">
<path id="Icon" d="M11.542 0C17.916 0.000175751 23.0828 5.16796 23.083 11.542C23.0828 17.916 17.916 23.0828 11.542 23.083C5.16796 23.0828 0.000175746 17.916 0 11.542C0.000175946 5.16796 5.16796 0.00017595 11.542 0ZM11.542 1.5C5.99639 1.50018 1.50018 5.99639 1.5 11.542C1.50018 17.0876 5.99639 21.5828 11.542 21.583C17.0876 21.5828 21.5828 17.0876 21.583 11.542C21.5828 5.99639 17.0876 1.50018 11.542 1.5ZM11.542 4.375C11.956 4.37508 12.2918 4.71098 12.292 5.125V10.792H16.209C16.623 10.7922 16.959 11.1279 16.959 11.542C16.959 11.9561 16.623 12.2918 16.209 12.292H11.542C11.1538 12.292 10.8345 11.9971 10.7959 11.6191C10.7933 11.5938 10.792 11.568 10.792 11.542V5.125C10.7922 4.71094 11.1279 4.375 11.542 4.375Z" fill="#7D4CCF"/>
</svg>
