<svg viewBox="0 0 27.708 27.708" fill="none" xmlns="http://www.w3.org/2000/svg">
<path id="Icon" d="M13.8545 0C21.5057 0.000175758 27.7078 6.20331 27.708 13.8545C27.7078 21.5057 21.5057 27.7078 13.8545 27.708C6.20331 27.7078 0.000175747 21.5057 0 13.8545C0.000175946 6.20331 6.20331 0.000175956 13.8545 0ZM13.8545 1.5C7.03173 1.50018 1.50018 7.03173 1.5 13.8545C1.50018 20.6773 7.03173 26.2078 13.8545 26.208C20.6773 26.2078 26.2078 20.6773 26.208 13.8545C26.2078 7.03173 20.6773 1.50018 13.8545 1.5ZM13.8545 5.3125C14.2685 5.31259 14.6043 5.64849 14.6045 6.0625V13.1045H19.5215L19.5977 13.1084C19.9759 13.1467 20.2715 13.4661 20.2715 13.8545C20.2715 14.2429 19.9759 14.5623 19.5977 14.6006L19.5215 14.6045H13.8545C13.6474 14.6045 13.4599 14.5205 13.3242 14.3848C13.2563 14.3169 13.2011 14.2363 13.1631 14.1465C13.1347 14.0793 13.1161 14.0071 13.1084 13.9316C13.1058 13.9063 13.1045 13.8805 13.1045 13.8545V6.0625C13.1047 5.64844 13.4404 5.3125 13.8545 5.3125Z" fill="#7D4CCF"/>
</svg>
