<svg viewBox="0 0 28.708 28.708" fill="none" xmlns="http://www.w3.org/2000/svg">
<g id="Icon">
<path d="M14.3545 0.5C22.0057 0.500176 28.2078 6.70331 28.208 14.3545C28.2078 22.0057 22.0057 28.2078 14.3545 28.208C6.70331 28.2078 0.500176 22.0057 0.5 14.3545C0.500176 6.70331 6.70331 0.500176 14.3545 0.5ZM14.3545 2C7.53173 2.00018 2.00018 7.53173 2 14.3545C2.00018 21.1773 7.53173 26.7078 14.3545 26.708C21.1773 26.7078 26.7078 21.1773 26.708 14.3545C26.7078 7.53173 21.1773 2.00018 14.3545 2ZM14.3545 5.8125C14.7685 5.81259 15.1043 6.14849 15.1045 6.5625V13.6045H20.0215L20.0977 13.6084C20.4759 13.6467 20.7715 13.9661 20.7715 14.3545C20.7715 14.7429 20.4759 15.0623 20.0977 15.1006L20.0215 15.1045H14.3545C14.1474 15.1045 13.9599 15.0205 13.8242 14.8848C13.7563 14.8169 13.7011 14.7363 13.6631 14.6465C13.6347 14.5793 13.6161 14.5071 13.6084 14.4316C13.6058 14.4063 13.6045 14.3805 13.6045 14.3545V6.5625C13.6047 6.14844 13.9404 5.8125 14.3545 5.8125Z" fill="#7D4CCF"/>
<path d="M14.3545 0.5L14.3545 0H14.3545L14.3545 0.5ZM28.208 14.3545L28.708 14.3545V14.3545L28.208 14.3545ZM14.3545 28.208L14.3545 28.708H14.3545L14.3545 28.208ZM0.5 14.3545L0 14.3545V14.3545L0.5 14.3545ZM14.3545 2L14.3545 1.5H14.3545L14.3545 2ZM2 14.3545L1.5 14.3545V14.3545L2 14.3545ZM14.3545 26.708L14.3545 27.208H14.3545L14.3545 26.708ZM26.708 14.3545L27.208 14.3545V14.3545L26.708 14.3545ZM14.3545 5.8125L14.3546 5.3125H14.3545V5.8125ZM15.1045 6.5625H15.6045V6.56229L15.1045 6.5625ZM15.1045 13.6045H14.6045V14.1045H15.1045V13.6045ZM20.0215 13.6045L20.0471 13.1051L20.0343 13.1045H20.0215V13.6045ZM20.0977 13.6084L20.1481 13.1109L20.1357 13.1097L20.1233 13.1091L20.0977 13.6084ZM20.0977 15.1006L20.1233 15.5999L20.1357 15.5993L20.1481 15.598L20.0977 15.1006ZM20.0215 15.1045V15.6045H20.0343L20.0471 15.6038L20.0215 15.1045ZM13.8242 14.8848L14.1778 14.5312L14.1777 14.5312L13.8242 14.8848ZM13.6631 14.6465L13.2026 14.8412L13.2026 14.8413L13.6631 14.6465ZM13.6084 14.4316L14.1058 14.3808L14.1058 14.3808L13.6084 14.4316ZM13.6045 6.5625L13.1045 6.56229V6.5625H13.6045ZM14.3545 0.5L14.3545 1C21.7295 1.00017 27.7078 6.9794 27.708 14.3545L28.208 14.3545L28.708 14.3545C28.7078 6.42721 22.2819 0.000182092 14.3545 0L14.3545 0.5ZM28.208 14.3545L27.708 14.3545C27.7078 21.7295 21.7295 27.7078 14.3545 27.708L14.3545 28.208L14.3545 28.708C22.2818 28.7078 28.7078 22.2818 28.708 14.3545L28.208 14.3545ZM14.3545 28.208L14.3545 27.708C6.9794 27.7078 1.00017 21.7295 1 14.3545L0.5 14.3545L0 14.3545C0.000182092 22.2819 6.42721 28.7078 14.3545 28.708L14.3545 28.208ZM0.5 14.3545L1 14.3545C1.00017 6.97945 6.97945 1.00017 14.3545 1L14.3545 0.5L14.3545 0C6.42716 0.000182301 0.000182301 6.42716 0 14.3545L0.5 14.3545ZM14.3545 2L14.3545 1.5C7.25559 1.50018 1.50018 7.25559 1.5 14.3545L2 14.3545L2.5 14.3545C2.50017 7.80788 7.80788 2.50017 14.3545 2.5L14.3545 2ZM2 14.3545L1.5 14.3545C1.50018 21.4534 7.25564 27.2078 14.3545 27.208L14.3545 26.708L14.3545 26.208C7.80783 26.2078 2.50017 20.9011 2.5 14.3545L2 14.3545ZM14.3545 26.708L14.3545 27.208C21.4534 27.2078 27.2078 21.4534 27.208 14.3545L26.708 14.3545L26.208 14.3545C26.2078 20.9011 20.9011 26.2078 14.3545 26.208L14.3545 26.708ZM26.708 14.3545L27.208 14.3545C27.2078 7.25564 21.4534 1.50018 14.3545 1.5L14.3545 2L14.3545 2.5C20.9011 2.50017 26.2078 7.80783 26.208 14.3545L26.708 14.3545ZM14.3545 5.8125L14.3544 6.3125C14.4923 6.31253 14.6044 6.42458 14.6045 6.56271L15.1045 6.5625L15.6045 6.56229C15.6042 5.8724 15.0448 5.31266 14.3546 5.3125L14.3545 5.8125ZM15.1045 6.5625H14.6045V13.6045H15.1045H15.6045V6.5625H15.1045ZM15.1045 13.6045V14.1045H20.0215V13.6045V13.1045H15.1045V13.6045ZM20.0215 13.6045L19.9959 14.1038L20.072 14.1077L20.0977 13.6084L20.1233 13.1091L20.0471 13.1051L20.0215 13.6045ZM20.0977 13.6084L20.0473 14.1059C20.1732 14.1186 20.2715 14.2257 20.2715 14.3545H20.7715H21.2715C21.2715 13.7065 20.7787 13.1748 20.1481 13.1109L20.0977 13.6084ZM20.7715 14.3545H20.2715C20.2715 14.4833 20.1732 14.5904 20.0473 14.6031L20.0977 15.1006L20.1481 15.598C20.7787 15.5341 21.2715 15.0025 21.2715 14.3545H20.7715ZM20.0977 15.1006L20.072 14.6012L19.9959 14.6051L20.0215 15.1045L20.0471 15.6038L20.1233 15.5999L20.0977 15.1006ZM20.0215 15.1045V14.6045H14.3545V15.1045V15.6045H20.0215V15.1045ZM14.3545 15.1045V14.6045C14.2855 14.6045 14.2237 14.5771 14.1778 14.5312L13.8242 14.8848L13.4707 15.2383C13.6962 15.4639 14.0093 15.6045 14.3545 15.6045V15.1045ZM13.8242 14.8848L14.1777 14.5312C14.1538 14.5072 14.1356 14.4801 14.1236 14.4517L13.6631 14.6465L13.2026 14.8413C13.2665 14.9924 13.3589 15.1266 13.4707 15.2384L13.8242 14.8848ZM13.6631 14.6465L14.1236 14.4518C14.1149 14.4311 14.1085 14.4074 14.1058 14.3808L13.6084 14.4316L13.111 14.4825C13.1237 14.6067 13.1545 14.7276 13.2026 14.8412L13.6631 14.6465ZM13.6084 14.4316L14.1058 14.3808C14.105 14.3725 14.1045 14.3637 14.1045 14.3545H13.6045H13.1045C13.1045 14.3974 13.1067 14.4401 13.111 14.4825L13.6084 14.4316ZM13.6045 14.3545H14.1045V6.5625H13.6045H13.1045V14.3545H13.6045ZM13.6045 6.5625L14.1045 6.56271C14.1046 6.42441 14.2167 6.3125 14.3545 6.3125V5.8125V5.3125C13.664 5.3125 13.1048 5.87246 13.1045 6.56229L13.6045 6.5625Z" fill="#7D4CCF"/>
</g>
</svg>
