<svg viewBox="0 0 20.625 27.708" fill="none" xmlns="http://www.w3.org/2000/svg">
<path id="Icon" d="M18.375 0C19.6176 5.57026e-08 20.625 1.00736 20.625 2.25V25.458C20.6248 26.7005 19.6175 27.708 18.375 27.708H2.25C1.00747 27.708 0.00017625 26.7005 0 25.458V10.2246C7.2992e-05 9.62845 0.236932 9.05657 0.658203 8.63477L8.62891 0.65918C9.0509 0.23697 9.62376 0 10.2207 0H18.375ZM10.3564 8.10254C10.3573 9.34561 9.34944 10.3542 8.10645 10.3545H1.5V25.458C1.50018 25.8721 1.8359 26.208 2.25 26.208H18.375C18.7891 26.208 19.1248 25.8721 19.125 25.458V2.25C19.125 1.83579 18.7892 1.5 18.375 1.5H10.3525L10.3564 8.10254ZM10.3125 20.8955C10.7267 20.8955 11.0625 21.2313 11.0625 21.6455C11.0623 22.0596 10.7266 22.3955 10.3125 22.3955H6.0625C5.64839 22.3955 5.31268 22.0596 5.3125 21.6455C5.3125 21.2313 5.64829 20.8955 6.0625 20.8955H10.3125ZM14.5625 16.6455C14.9767 16.6455 15.3125 16.9813 15.3125 17.3955C15.3123 17.8096 14.9766 18.1455 14.5625 18.1455H6.0625C5.6484 18.1455 5.31268 17.8096 5.3125 17.3955C5.3125 16.9813 5.64829 16.6455 6.0625 16.6455H14.5625ZM2.55859 8.85449H8.10645C8.5206 8.85418 8.85674 8.51774 8.85645 8.10352L8.85254 2.55664L2.55859 8.85449Z" fill="#7D4CCF"/>
</svg>
