<svg viewBox="0 0 147.654 44" fill="none" xmlns="http://www.w3.org/2000/svg">
<g id="Vector">
<path d="M32.4971 0H11.5029C5.15002 0 0 5.14722 0 11.4966V32.5034C0 38.8528 5.15002 44 11.5029 44H32.4971C38.85 44 44 38.8528 44 32.5034V11.4966C44 5.14722 38.85 0 32.4971 0Z" fill="#F11F24"/>
<path d="M17.5217 4.79618L4.79618 17.5217C2.34999 19.9679 2.34999 23.9339 4.79618 26.3801L17.5217 39.1056C19.9679 41.5518 23.9339 41.5518 26.3801 39.1056L39.1056 26.3801C41.5518 23.9339 41.5518 19.9679 39.1056 17.5217L26.3801 4.79618C23.9339 2.34999 19.9679 2.34999 17.5217 4.79618Z" fill="#78FFC7"/>
<path d="M21.8794 32.7575C27.888 32.7575 32.7589 27.8869 32.7589 21.8787C32.7589 15.8706 27.888 11 21.8794 11C15.8709 11 11 15.8706 11 21.8787C11 27.8869 15.8709 32.7575 21.8794 32.7575Z" fill="#7D4CCF"/>
<path d="M68.7116 21.4228L74.7932 29.579H71.0066L65.7281 22.4567H61.7122V29.579H58.3846V13.4964H61.7122V20.7336H65.4988L70.7769 13.4964H74.4491L68.7116 21.4228ZM78.8182 25.7881C78.8182 27.2432 79.698 27.9707 81.4574 27.9707H84.6705V23.6055H81.4574C79.698 23.6055 78.8182 24.333 78.8182 25.7881ZM84.6705 21.9972C84.6705 20.8944 84.3796 20.0826 83.7984 19.5619C83.2323 19.0411 82.4903 18.7807 81.5723 18.7807C80.8839 18.7807 80.2106 18.8879 79.5528 19.1024C78.8948 19.3015 78.3059 19.5772 77.7857 19.9294L76.9825 18.551C77.319 18.3212 77.6862 18.1221 78.0839 17.9536C78.497 17.7851 78.9177 17.6473 79.3461 17.54C79.7745 17.4175 80.1952 17.3256 80.6083 17.2644C81.0367 17.2031 81.4345 17.1724 81.8016 17.1724C82.7809 17.1724 83.6453 17.2873 84.3949 17.5171C85.1449 17.7468 85.7796 18.0761 86.2999 18.505C86.8201 18.9339 87.2102 19.447 87.4702 20.0443C87.7455 20.6264 87.8833 21.2773 87.8833 21.9972V29.579H81.4574C79.3767 29.579 77.8393 29.265 76.8447 28.637C75.8654 28.009 75.3758 27.0594 75.3758 25.7881C75.3758 24.5168 75.8654 23.5672 76.8447 22.9392C77.8393 22.3112 79.3767 21.9972 81.4574 21.9972H84.6705ZM97.1669 16.2534C95.729 16.2534 94.6425 15.9241 93.9082 15.2655C93.1739 14.5916 92.8068 13.7339 92.8068 12.6923H95.4457C95.4457 13.2743 95.6141 13.7492 95.9506 14.1168C96.3025 14.469 96.7079 14.6452 97.1669 14.6452C97.6259 14.6452 98.0237 14.469 98.3606 14.1168C98.7124 13.7492 98.8881 13.2743 98.8881 12.6923H101.527C101.527 13.7339 101.16 14.5916 100.426 15.2655C99.6913 15.9241 98.6052 16.2534 97.1669 16.2534ZM103.822 17.6319V29.579H100.609V20.6187H100.38L95.1015 29.579H90.9707V17.6319H94.1835V26.5922H94.4132L99.6913 17.6319H103.822ZM118.514 19.2402H113.695V29.579H110.482V19.2402H105.663V17.6319H118.514V19.2402ZM126.542 28.4302C127.292 28.4302 127.988 28.3 128.631 28.0396C129.288 27.7793 129.931 27.4117 130.558 26.9368L131.476 28.3154C131.186 28.5757 130.841 28.8131 130.443 29.0276C130.061 29.242 129.64 29.4258 129.181 29.579C128.738 29.7168 128.271 29.824 127.782 29.9006C127.292 29.9925 126.802 30.0385 126.313 30.0385C125.227 30.0385 124.232 29.893 123.329 29.6019C122.442 29.3263 121.685 28.9203 121.057 28.3843C120.43 27.8329 119.94 27.1589 119.589 26.3625C119.252 25.566 119.084 24.647 119.084 23.6055C119.084 22.5792 119.244 21.6679 119.566 20.8714C119.902 20.0596 120.361 19.3857 120.943 18.8496C121.539 18.2982 122.243 17.8847 123.054 17.609C123.865 17.3179 124.76 17.1724 125.739 17.1724C126.657 17.1724 127.521 17.3103 128.332 17.586C129.143 17.8617 129.847 18.2676 130.443 18.8037C131.04 19.3244 131.515 19.9601 131.866 20.7106C132.218 21.4611 132.394 22.3112 132.394 23.2608V24.8691H122.595C122.778 26.1404 123.214 27.0517 123.903 27.6031C124.607 28.1545 125.487 28.4302 126.542 28.4302ZM125.739 18.6658C125.295 18.6658 124.882 18.7501 124.5 18.9185C124.117 19.087 123.781 19.3551 123.49 19.7227C123.214 20.0903 122.985 20.5651 122.801 21.1471C122.633 21.7292 122.541 22.4337 122.526 23.2608H128.952C128.952 22.4644 128.86 21.7751 128.676 21.1931C128.493 20.611 128.248 20.1362 127.942 19.7686C127.651 19.3857 127.307 19.11 126.91 18.9415C126.527 18.7577 126.137 18.6658 125.739 18.6658ZM147.654 17.6319V29.579H144.441V24.2947H138.245V29.579H135.032V17.6319H138.245V22.6865H144.441V17.6319H147.654Z" fill="black"/>
</g>
</svg>
