<svg viewBox="0 0 25.5 25.5" fill="none" xmlns="http://www.w3.org/2000/svg">
<g id="Vector">
<path d="M2.08219 21.9152L21.9154 2.08203C22.3303 1.6671 23.003 1.6671 23.418 2.08203C23.8329 2.49696 23.8329 3.1697 23.418 3.58463L3.5848 23.4178C3.16986 23.8327 2.49713 23.8327 2.08219 23.4178C1.66726 23.0029 1.66726 22.3301 2.08219 21.9152Z" fill="#7D4CCF"/>
<path d="M9.20833 5.66667C9.20833 3.71066 7.62268 2.125 5.66667 2.125C3.71066 2.125 2.125 3.71066 2.125 5.66667C2.125 7.62268 3.71066 9.20833 5.66667 9.20833V11.3333C2.53705 11.3333 0 8.79628 0 5.66667C0 2.53705 2.53705 0 5.66667 0C8.79628 0 11.3333 2.53705 11.3333 5.66667C11.3333 8.79628 8.79628 11.3333 5.66667 11.3333V9.20833C7.62268 9.20833 9.20833 7.62268 9.20833 5.66667Z" fill="#7D4CCF"/>
<path d="M23.375 19.8333C23.375 17.8773 21.7893 16.2917 19.8333 16.2917C17.8773 16.2917 16.2917 17.8773 16.2917 19.8333C16.2917 21.7893 17.8773 23.375 19.8333 23.375V25.5C16.7037 25.5 14.1667 22.9629 14.1667 19.8333C14.1667 16.7037 16.7037 14.1667 19.8333 14.1667C22.9629 14.1667 25.5 16.7037 25.5 19.8333C25.5 22.9629 22.9629 25.5 19.8333 25.5V23.375C21.7893 23.375 23.375 21.7893 23.375 19.8333Z" fill="#7D4CCF"/>
</g>
</svg>
