<svg viewBox="0 0 23.0424 23.0422" fill="none" xmlns="http://www.w3.org/2000/svg">
<path id="Icon" d="M6.04018 8.16306L3.33022 10.873C0.889762 13.3137 0.889791 17.2712 3.33022 19.7119C5.77092 22.1525 9.72831 22.1524 12.1691 19.7119L14.879 17.0019L15.9396 18.0625L13.2296 20.7724C10.2031 23.7988 5.29616 23.7989 2.26967 20.7724C-0.756542 17.7459 -0.756571 12.839 2.26967 9.81247L4.97963 7.10251L6.04018 8.16306ZM9.81264 2.26951C12.8392 -0.756407 17.7462 -0.756597 20.7726 2.26951C23.799 5.29598 23.7989 10.2039 20.7726 13.2304L18.0607 15.9414L17.0001 14.8808L19.7121 12.1699C22.1525 9.72918 22.1525 5.77173 19.7121 3.33103C17.2714 0.890347 13.314 0.890538 10.8732 3.33103L8.16127 6.04197L7.10073 4.98142L9.81264 2.26951ZM13.8185 8.16306C14.1114 7.87018 14.5862 7.87019 14.879 8.16306C15.1719 8.45595 15.1719 8.93071 14.879 9.22361L9.2228 14.8799C8.9299 15.1728 8.45514 15.1728 8.16225 14.8799C7.86938 14.587 7.86936 14.1122 8.16225 13.8193L13.8185 8.16306Z" fill="white"/>
</svg>
