<svg viewBox="0 0 34 34" fill="none" xmlns="http://www.w3.org/2000/svg">
<g id="Icons/error-2">
<path id="Icon" d="M15.409 2.71921C16.2877 1.84076 17.713 1.84061 18.5916 2.71921L31.2811 15.4087C32.1594 16.2873 32.1594 17.7127 31.2811 18.5913L18.5916 31.2807C17.713 32.1593 16.2877 32.1592 15.409 31.2807L2.71954 18.5913C1.84086 17.7126 1.84086 16.2873 2.71954 15.4087L15.409 2.71921ZM17.5301 3.77976C17.2372 3.48716 16.7624 3.48717 16.4695 3.77976L3.78008 16.4692C3.48719 16.7621 3.48719 17.2378 3.78008 17.5307L16.4695 30.2202C16.7624 30.5128 17.2373 30.5128 17.5301 30.2202L30.2205 17.5307C30.5131 17.2379 30.5131 16.762 30.2205 16.4692L17.5301 3.77976ZM16.9998 20.8178C17.4968 20.8178 17.9002 21.2212 17.9002 21.7182C17.9 22.2151 17.4967 22.6186 16.9998 22.6186H16.9988C16.5021 22.6184 16.0986 22.215 16.0984 21.7182C16.0985 21.2213 16.5019 20.818 16.9988 20.8178H16.9998ZM16.9998 11.3774C17.4139 11.3774 17.7496 11.7133 17.7498 12.1274V18.105C17.7498 18.5192 17.414 18.855 16.9998 18.855C16.5859 18.8546 16.2498 18.5189 16.2498 18.105V12.1274C16.25 11.7136 16.586 11.3778 16.9998 11.3774Z" fill="#7D4CCF"/>
</g>
</svg>
