<svg viewBox="0 0 24.6667 24.6525" fill="none" xmlns="http://www.w3.org/2000/svg">
<path id="Icon" d="M9.96761 3.35872H23.6667M9.96761 12.3262H23.6667M9.96761 21.2938H23.6667M2.41667 5.7175H4.30083C5.08324 5.7175 5.7175 5.08324 5.7175 4.30083V2.41667C5.7175 1.63426 5.08324 1 4.30083 1H2.41667C1.63426 1 1 1.63426 1 2.41667V4.30083C1 5.08324 1.63426 5.7175 2.41667 5.7175ZM2.41667 14.685H4.30083C5.08324 14.685 5.7175 14.0508 5.7175 13.2684V11.3842C5.7175 10.6018 5.08324 9.96752 4.30083 9.96752H2.41667C1.63426 9.96752 1 10.6018 1 11.3842V13.2684C1 14.0508 1.63426 14.685 2.41667 14.685ZM2.41667 23.6525H4.30083C5.08324 23.6525 5.7175 23.0183 5.7175 22.2359V20.3517C5.7175 19.5693 5.08324 18.935 4.30083 18.935H2.41667C1.63426 18.935 1 19.5693 1 20.3517V22.2359C1 23.0183 1.63426 23.6525 2.41667 23.6525Z" stroke="#7D4CCF" stroke-width="2" stroke-linecap="round" stroke-linejoin="round"/>
</svg>
