<svg viewBox="0 0 79 60" fill="none" xmlns="http://www.w3.org/2000/svg">
<path id="&#226;&#128;&#156;" d="M63.0091 60C57.4401 60 52.8258 58.16 49.1662 54.48C45.6657 50.8 43.9154 45.52 43.9154 38.64C43.9154 31.28 45.9839 24 50.1208 16.8C54.4169 9.6 60.3837 4 68.0211 0L73.5106 8.4C65.2367 14.16 60.3041 21.44 58.713 30.24C60.145 29.6 61.8157 29.28 63.7251 29.28C68.1803 29.28 71.8399 30.72 74.7039 33.6C77.568 36.48 79 40.16 79 44.64C79 49.12 77.4884 52.8 74.4653 55.68C71.4421 58.56 67.6234 60 63.0091 60ZM19.0937 60C13.5247 60 8.91037 58.16 5.25075 54.48C1.75025 50.8 0 45.52 0 38.64C0 31.28 2.06848 24 6.20544 16.8C10.5015 9.6 16.4683 4 24.1057 0L29.5952 8.4C21.3212 14.16 16.3887 21.44 14.7976 30.24C16.2296 29.6 17.9003 29.28 19.8097 29.28C24.2649 29.28 27.9245 30.72 30.7885 33.6C33.6526 36.48 35.0846 40.16 35.0846 44.64C35.0846 49.12 33.573 52.8 30.5498 55.68C27.5267 58.56 23.708 60 19.0937 60Z" fill="#F3F4F6"/>
</svg>
