<svg viewBox="0 0 21.6448 21.6427" fill="none" xmlns="http://www.w3.org/2000/svg">
<path id="Icon" d="M4.4025 17.2428L1.27171 20.3736M6.83592 19.6761L5.6193 20.8927M1.96663 14.8092L0.75 16.0258M16.3289 5.31636L13.8541 7.79124M11.3734 19.264L2.38083 10.2714C1.36807 9.25861 1.93437 7.5245 3.34967 7.30467L7.51328 6.65796C7.88023 6.60096 8.21954 6.42872 8.48212 6.16613L12.5049 2.14334C12.7644 1.88388 13.0988 1.71254 13.461 1.65355L18.8625 0.773654C20.0424 0.581467 21.0633 1.60244 20.8711 2.78225L19.9912 8.18379C19.9322 8.54596 19.7609 8.88041 19.5014 9.13987L15.4787 13.1627C15.2161 13.4252 15.0438 13.7646 14.9868 14.1315L14.3401 18.2951C14.1203 19.7104 12.3862 20.2767 11.3734 19.264Z" stroke="#7D4CCF" stroke-width="1.5" stroke-linecap="round" stroke-linejoin="round"/>
</svg>
