<svg viewBox="0 0 22.4252 23.083" fill="none" xmlns="http://www.w3.org/2000/svg">
<path id="Icon" d="M12.9822 0C14.3523 -5.98905e-08 15.4634 1.11151 15.4636 2.48145C15.4639 3.23627 16.2808 3.70817 16.9343 3.33105C18.1206 2.64623 19.6379 3.05224 20.323 4.23828L22.0925 7.30273C22.7775 8.48933 22.3708 10.0072 21.1843 10.6924C20.5303 11.07 20.5305 12.0139 21.1843 12.3916C22.3705 13.0767 22.7771 14.5938 22.0925 15.7803L20.323 18.8447C19.638 20.0312 18.1208 20.4379 16.9343 19.7529C16.2808 19.3758 15.4639 19.8477 15.4636 20.6025C15.4635 21.9725 14.3523 23.083 12.9822 23.083H9.44507C8.0747 23.083 6.96363 21.9719 6.96363 20.6016C6.96303 19.8469 6.14507 19.3745 5.49097 19.752C4.30414 20.4372 2.78662 20.0307 2.10132 18.8438L0.332766 15.7803C-0.35202 14.5936 0.0544127 13.0767 1.24097 12.3916C1.89463 12.0139 1.89455 11.0701 1.24097 10.6924C0.054405 10.0072 -0.352348 8.48939 0.332766 7.30273L2.10132 4.23926C2.78667 3.05266 4.3043 2.64612 5.49097 3.33105C6.14531 3.70884 6.96354 3.23662 6.96363 2.48145C6.96382 1.11122 8.07481 2.19298e-05 9.44507 0H12.9822ZM9.44507 1.5C8.90324 1.50002 8.46382 1.93965 8.46363 2.48145C8.46354 4.39168 6.395 5.58484 4.74097 4.62988C4.27158 4.35914 3.67116 4.52019 3.40015 4.98926L1.63159 8.05273C1.3607 8.52194 1.52184 9.12159 1.99097 9.39258C3.64483 10.3475 3.64467 12.7353 1.99097 13.6904C1.52188 13.9613 1.36109 14.5611 1.63159 15.0303L3.40015 18.0938C3.67114 18.5631 4.27145 18.7242 4.74097 18.4531C6.39476 17.4984 8.46303 18.6918 8.46363 20.6016C8.46363 21.1435 8.90313 21.583 9.44507 21.583H12.9822C13.5238 21.583 13.9635 21.1442 13.9636 20.6025C13.9639 18.6934 16.0305 17.4995 17.6843 18.4541C18.1534 18.7248 18.7534 18.5637 19.0242 18.0947L20.7927 15.0303C21.0633 14.5612 20.9032 13.9614 20.4343 13.6904C18.7804 12.7354 18.7803 10.3475 20.4343 9.39258C20.9031 9.12149 21.0635 8.52179 20.7927 8.05273L19.0242 4.98828C18.7533 4.51961 18.1532 4.35926 17.6843 4.62988C16.0305 5.58463 13.9639 4.39064 13.9636 2.48145C13.9634 1.93978 13.5237 1.5 12.9822 1.5H9.44507ZM11.2126 7.19238C13.6143 7.19262 15.5611 9.14034 15.5613 11.542C15.561 13.9436 13.6143 15.8904 11.2126 15.8906C8.81084 15.8906 6.86328 13.9438 6.86304 11.542C6.86325 9.1402 8.81082 7.19241 11.2126 7.19238ZM11.2126 8.69238C9.63925 8.69241 8.36325 9.96863 8.36304 11.542C8.36328 13.1153 9.63926 14.3906 11.2126 14.3906C12.7858 14.3904 14.061 13.1152 14.0613 11.542C14.0611 9.96877 12.7859 8.69262 11.2126 8.69238Z" fill="#7D4CCF"/>
</svg>
