<svg viewBox="0 0 23.8462 28.2104" fill="none" xmlns="http://www.w3.org/2000/svg">
<path id="Icon" d="M7.74854 12.1106L16.0983 6.67391M7.743 16.1088L16.0926 21.5456M8.34201 14.1131C8.34201 16.1406 6.69845 17.7842 4.67101 17.7842C2.64357 17.7842 1 16.1406 1 14.1131C1 12.0857 2.64357 10.4421 4.67101 10.4421C6.69845 10.4421 8.34201 12.0857 8.34201 14.1131ZM22.8462 4.67101C22.8462 6.69845 21.2027 8.34201 19.1752 8.34201C17.1478 8.34201 15.5042 6.69845 15.5042 4.67101C15.5042 2.64357 17.1478 1 19.1752 1C21.2027 1 22.8462 2.64357 22.8462 4.67101ZM22.8462 23.5394C22.8462 25.5668 21.2027 27.2104 19.1752 27.2104C17.1478 27.2104 15.5042 25.5668 15.5042 23.5394C15.5042 21.5119 17.1478 19.8684 19.1752 19.8684C21.2027 19.8684 22.8462 21.5119 22.8462 23.5394Z" stroke="#7D4CCF" stroke-width="2" stroke-linecap="round" stroke-linejoin="round"/>
</svg>
