<svg viewBox="0 0 28.2083 28.2083" fill="none" xmlns="http://www.w3.org/2000/svg">
<path id="Icon" d="M18.7814 9.38379L14.1269 14.0383M18.7814 9.38379L22.2721 10.5473L25.3751 7.44434L21.8843 6.28071L20.7206 2.78983L17.6176 5.89283L18.7814 9.38379ZM13.3607 6.16964C9.30826 6.54459 6.13542 9.95385 6.13542 14.1042C6.13542 18.5052 9.70315 22.0729 14.1042 22.0729C18.2705 22.0729 21.69 18.8756 22.0429 14.8007M27.008 11.8088C27.1397 12.5541 27.2083 13.3211 27.2083 14.1042C27.2083 21.3414 21.3414 27.2083 14.1042 27.2083C6.86694 27.2083 1 21.3414 1 14.1042C1 6.86694 6.86694 1 14.1042 1C14.8622 1 15.6051 1.06436 16.3279 1.1879" stroke="#7D4CCF" stroke-width="2" stroke-linecap="round" stroke-linejoin="round"/>
</svg>
