<svg viewBox="0 0 28.708 28.708" fill="none" xmlns="http://www.w3.org/2000/svg">
<g id="Icon">
<path d="M14.3545 0.5C22.0057 0.500176 28.2078 6.7033 28.208 14.3545C28.2078 22.0057 22.0057 28.2078 14.3545 28.208C6.7033 28.2078 0.500176 22.0057 0.5 14.3545C0.500176 6.7033 6.7033 0.500176 14.3545 0.5ZM12.5479 18.4268C9.44141 18.4268 6.9231 20.9454 6.92285 24.0518V24.2217C8.9911 25.7818 11.5642 26.7079 14.3545 26.708C17.1442 26.7079 19.7172 25.7822 21.7852 24.2227V24.0518C21.7849 20.9454 19.2665 18.4268 16.1602 18.4268H12.5479ZM14.3545 2C7.53173 2.00018 2.00018 7.53173 2 14.3545C2.00009 17.706 3.33704 20.7442 5.50391 22.9697C6.02536 19.5484 8.98081 16.9268 12.5479 16.9268H16.1602C19.7271 16.9268 22.6816 19.5485 23.2031 22.9697C25.3704 20.7441 26.7079 17.7065 26.708 14.3545C26.7078 7.53173 21.1773 2.00018 14.3545 2ZM14.3525 5.8125C16.9321 5.8125 19.0232 7.90386 19.0234 10.4834C19.0234 13.0632 16.9323 15.1543 14.3525 15.1543C11.7731 15.1539 9.68164 13.063 9.68164 10.4834C9.68193 7.90409 11.7732 5.81287 14.3525 5.8125ZM14.3525 7.3125C12.6017 7.31286 11.1819 8.73252 11.1816 10.4834C11.1816 12.2345 12.6015 13.6539 14.3525 13.6543C16.1039 13.6543 17.5234 12.2347 17.5234 10.4834C17.5232 8.73229 16.1037 7.3125 14.3525 7.3125Z" fill="#7D4CCF"/>
<path d="M14.3545 0.5L14.3545 0H14.3545L14.3545 0.5ZM28.208 14.3545L28.708 14.3545V14.3545L28.208 14.3545ZM14.3545 28.208L14.3545 28.708H14.3545L14.3545 28.208ZM0.5 14.3545L0 14.3545V14.3545L0.5 14.3545ZM6.92285 24.0518L6.42285 24.0517V24.0518H6.92285ZM6.92285 24.2217H6.42285C6.42285 24.3786 6.4965 24.5264 6.62175 24.6209L6.92285 24.2217ZM14.3545 26.708L14.3545 27.208H14.3545L14.3545 26.708ZM21.7852 24.2227L22.0862 24.6219C22.2115 24.5274 22.2852 24.3796 22.2852 24.2227H21.7852ZM21.7852 24.0518H22.2852V24.0517L21.7852 24.0518ZM16.1602 18.4268L16.1602 17.9268H16.1602V18.4268ZM14.3545 2L14.3545 1.5H14.3545L14.3545 2ZM2 14.3545L1.5 14.3545V14.3545L2 14.3545ZM5.50391 22.9697L5.14566 23.3185C5.27803 23.4545 5.47595 23.5038 5.65663 23.4458C5.8373 23.3879 5.96961 23.2326 5.9982 23.0451L5.50391 22.9697ZM16.1602 16.9268L16.1602 16.4268H16.1602V16.9268ZM23.2031 22.9697L22.7088 23.0451C22.7374 23.2326 22.8697 23.3879 23.0504 23.4458C23.2311 23.5038 23.429 23.4545 23.5613 23.3186L23.2031 22.9697ZM26.708 14.3545L27.208 14.3545V14.3545L26.708 14.3545ZM14.3525 5.8125V5.3125H14.3525L14.3525 5.8125ZM19.0234 10.4834H19.5234V10.4833L19.0234 10.4834ZM14.3525 15.1543L14.3525 15.6543H14.3525V15.1543ZM9.68164 10.4834L9.18164 10.4833V10.4834H9.68164ZM14.3525 7.3125V6.8125H14.3524L14.3525 7.3125ZM11.1816 10.4834L10.6816 10.4833V10.4834H11.1816ZM14.3525 13.6543L14.3524 14.1543H14.3525V13.6543ZM17.5234 10.4834H18.0234V10.4833L17.5234 10.4834ZM14.3545 0.5L14.3545 1C21.7295 1.00017 27.7078 6.9794 27.708 14.3545L28.208 14.3545L28.708 14.3545C28.7078 6.42721 22.2819 0.000181884 14.3545 0L14.3545 0.5ZM28.208 14.3545L27.708 14.3545C27.7078 21.7295 21.7295 27.7078 14.3545 27.708L14.3545 28.208L14.3545 28.708C22.2818 28.7078 28.7078 22.2818 28.708 14.3545L28.208 14.3545ZM14.3545 28.208L14.3545 27.708C6.9794 27.7078 1.00017 21.7295 1 14.3545L0.5 14.3545L0 14.3545C0.000181854 22.2819 6.42721 28.7078 14.3545 28.708L14.3545 28.208ZM0.5 14.3545L1 14.3545C1.00017 6.97945 6.97945 1.00017 14.3545 1L14.3545 0.5L14.3545 0C6.42716 0.000182301 0.000182301 6.42716 0 14.3545L0.5 14.3545ZM12.5479 18.4268V17.9268C9.16522 17.9268 6.42313 20.6693 6.42285 24.0517L6.92285 24.0518L7.42285 24.0518C7.42308 21.2215 9.71759 18.9268 12.5479 18.9268V18.4268ZM6.92285 24.0518H6.42285V24.2217H6.92285H7.42285V24.0518H6.92285ZM6.92285 24.2217L6.62175 24.6209C8.77359 26.244 11.4517 27.2079 14.3545 27.208L14.3545 26.708L14.3545 26.208C11.6768 26.2079 9.20862 25.3196 7.22395 23.8225L6.92285 24.2217ZM14.3545 26.708L14.3545 27.208C17.2567 27.2079 19.9347 26.2445 22.0862 24.6219L21.7852 24.2227L21.4841 23.8235C19.4998 25.32 17.0317 26.2079 14.3545 26.208L14.3545 26.708ZM21.7852 24.2227H22.2852V24.0518H21.7852H21.2852V24.2227H21.7852ZM21.7852 24.0518L22.2852 24.0517C22.2849 20.6693 19.5427 17.9269 16.1602 17.9268L16.1602 18.4268L16.1601 18.9268C18.9904 18.9268 21.2849 21.2215 21.2852 24.0518L21.7852 24.0518ZM16.1602 18.4268V17.9268H12.5479V18.4268V18.9268H16.1602V18.4268ZM14.3545 2L14.3545 1.5C7.25559 1.50018 1.50018 7.25559 1.5 14.3545L2 14.3545L2.5 14.3545C2.50017 7.80788 7.80788 2.50017 14.3545 2.5L14.3545 2ZM2 14.3545L1.5 14.3545C1.50009 17.8418 2.89179 21.0036 5.14566 23.3185L5.50391 22.9697L5.86215 22.6209C3.78228 20.4848 2.50008 17.5702 2.5 14.3545L2 14.3545ZM5.50391 22.9697L5.9982 23.0451C6.48299 19.8643 9.23157 17.4268 12.5479 17.4268V16.9268V16.4268C8.73006 16.4268 5.56773 19.2325 5.00961 22.8944L5.50391 22.9697ZM12.5479 16.9268V17.4268H16.1602V16.9268V16.4268H12.5479V16.9268ZM16.1602 16.9268L16.1601 17.4268C19.4762 17.4268 22.224 19.8643 22.7088 23.0451L23.2031 22.9697L23.6974 22.8944C23.1393 19.2327 19.9779 16.4268 16.1602 16.4268L16.1602 16.9268ZM23.2031 22.9697L23.5613 23.3186C25.8156 21.0036 27.2079 17.8423 27.208 14.3545L26.708 14.3545L26.208 14.3545C26.2079 17.5706 24.9252 20.4846 22.8449 22.6209L23.2031 22.9697ZM26.708 14.3545L27.208 14.3545C27.2078 7.25564 21.4534 1.50018 14.3545 1.5L14.3545 2L14.3545 2.5C20.9011 2.50017 26.2078 7.80783 26.208 14.3545L26.708 14.3545ZM14.3525 5.8125V6.3125C16.6559 6.3125 18.5232 8.17996 18.5234 10.4835L19.0234 10.4834L19.5234 10.4833C19.5231 7.62776 17.2083 5.3125 14.3525 5.3125V5.8125ZM19.0234 10.4834H18.5234C18.5234 12.787 16.6562 14.6543 14.3525 14.6543V15.1543V15.6543C17.2085 15.6543 19.5234 13.3393 19.5234 10.4834H19.0234ZM14.3525 15.1543L14.3526 14.6543C12.0492 14.654 10.1816 12.7867 10.1816 10.4834H9.68164H9.18164C9.18164 13.3392 11.497 15.6539 14.3525 15.6543L14.3525 15.1543ZM9.68164 10.4834L10.1816 10.4835C10.1819 8.18026 12.0494 6.31283 14.3526 6.3125L14.3525 5.8125L14.3525 5.3125C11.4971 5.3129 9.18196 7.62792 9.18164 10.4833L9.68164 10.4834ZM14.3525 7.3125L14.3524 6.8125C12.3255 6.81292 10.682 8.45633 10.6816 10.4833L11.1816 10.4834L11.6816 10.4835C11.6819 9.0087 12.8778 7.81281 14.3526 7.8125L14.3525 7.3125ZM11.1816 10.4834H10.6816C10.6816 12.5108 12.3254 14.1539 14.3524 14.1543L14.3525 13.6543L14.3526 13.1543C12.8776 13.154 11.6816 11.9583 11.6816 10.4834H11.1816ZM14.3525 13.6543V14.1543C16.38 14.1543 18.0234 12.5109 18.0234 10.4834H17.5234H17.0234C17.0234 11.9586 15.8277 13.1543 14.3525 13.1543V13.6543ZM17.5234 10.4834L18.0234 10.4833C18.0231 8.45621 16.3799 6.8125 14.3525 6.8125V7.3125V7.8125C15.8275 7.8125 17.0232 9.00837 17.0234 10.4835L17.5234 10.4834Z" fill="#7D4CCF"/>
</g>
</svg>
