<svg viewBox="0 0 23.1548 25.3982" fill="none" xmlns="http://www.w3.org/2000/svg">
<path id="Icon" d="M8.17896 24.0833H2.75C1.64543 24.0833 0.75 23.1879 0.75 22.0833V20.3353C0.75 17.0216 3.43629 14.3353 6.75 14.3353H11.0026M18.8691 14.6853L21.5712 17.3874M15.6325 5.54279C15.6325 8.18977 13.4866 10.3356 10.8397 10.3356C8.19268 10.3356 6.04688 8.18977 6.04688 5.54279C6.04688 2.8958 8.19268 0.75 10.8397 0.75C13.4866 0.75 15.6325 2.8958 15.6325 5.54279ZM11.6083 24.6482L13.9376 24.3962C14.391 24.3471 14.8141 24.1445 15.1366 23.822L22.0143 16.9443C22.535 16.4236 22.535 15.5794 22.0143 15.0587L21.1978 14.2422C20.6771 13.7215 19.8329 13.7216 19.3122 14.2423L12.4346 21.1199C12.112 21.4424 11.9094 21.8655 11.8604 22.319L11.6083 24.6482Z" stroke="white" stroke-width="1.5" stroke-linecap="round" stroke-linejoin="round"/>
</svg>
