<svg viewBox="0 0 27.708 27.708" fill="none" xmlns="http://www.w3.org/2000/svg">
<path id="Icon" d="M13.8545 0C21.5057 0.000175533 27.7078 6.2033 27.708 13.8545C27.7078 21.5057 21.5057 27.7078 13.8545 27.708C6.2033 27.7078 0.000175522 21.5057 0 13.8545C0.000175946 6.2033 6.2033 0.000175956 13.8545 0ZM12.0479 17.9268C8.94141 17.9268 6.4231 20.4454 6.42285 23.5518V23.7217C8.4911 25.2818 11.0642 26.2079 13.8545 26.208C16.6442 26.2079 19.2172 25.2822 21.2852 23.7227V23.5518C21.2849 20.4454 18.7665 17.9268 15.6602 17.9268H12.0479ZM13.8545 1.5C7.03173 1.50018 1.50018 7.03173 1.5 13.8545C1.50009 17.206 2.83704 20.2442 5.00391 22.4697C5.52536 19.0484 8.48081 16.4268 12.0479 16.4268H15.6602C19.2271 16.4268 22.1816 19.0485 22.7031 22.4697C24.8704 20.2441 26.2079 17.2065 26.208 13.8545C26.2078 7.03173 20.6773 1.50018 13.8545 1.5ZM13.8525 5.3125C16.4321 5.3125 18.5232 7.40386 18.5234 9.9834C18.5234 12.5632 16.4323 14.6543 13.8525 14.6543C11.2731 14.6539 9.18164 12.563 9.18164 9.9834C9.18193 7.40409 11.2732 5.31287 13.8525 5.3125ZM13.8525 6.8125C12.1017 6.81286 10.6819 8.23252 10.6816 9.9834C10.6816 11.7345 12.1015 13.1539 13.8525 13.1543C15.6039 13.1543 17.0234 11.7347 17.0234 9.9834C17.0232 8.23229 15.6037 6.8125 13.8525 6.8125Z" fill="#7D4CCF"/>
</svg>
